HIERARCHY
ROOT Hips
{
	OFFSET 0.00000 0.00000 0.00000
	CHANNELS 6 Xposition Yposition Zposition Yrotation Zrotation Xrotation 
	JOINT Lumbar
	{
		OFFSET 0 0 0
		CHANNELS 3 Zrotation Xrotation Yrotation
		JOINT Neck
		{
			OFFSET 0.00 0.2701 0.00
			CHANNELS 3 Zrotation Xrotation Yrotation
			End Site
			{
				OFFSET 0.00 0.1379 0.00
			}
		}
		JOINT RightShoulder
		{
			OFFSET 0.0119 0.2289 0.1181
			CHANNELS 3 Zrotation Xrotation Yrotation
			JOINT RightElbow
			{
				OFFSET 0.00 -0.1475 0.00
				CHANNELS 2 Zrotation Yrotation
				JOINT RightWrist
				{
					OFFSET 0.00 -0.1605 0.00
					CHANNELS 2 Zrotation Xrotation
					End Site
					{
						OFFSET 0.0040 -0.1068 0.0006
					}
				}
			}
		}
		JOINT LeftShoulder
		{
			OFFSET 0.0119 0.2289 -0.1181
			CHANNELS 3 Zrotation Xrotation Yrotation
			JOINT LeftElbow
			{
				OFFSET 0.00 -0.1475 0.00
				CHANNELS 2 Zrotation Yrotation
				JOINT LeftWrist
				{
					OFFSET 0.00 -0.1605 0.00
					CHANNELS 2 Zrotation Xrotation
					End Site
					{
						OFFSET 0.0040 -0.1068 -0.0006
					}
				}
			}
		}
	}
	JOINT RightHip
	{
		OFFSET 0.0316 -0.0424 0.0458
		CHANNELS 3 Zrotation Xrotation Yrotation
		JOINT RightKnee
		{
			OFFSET 0.00 -0.2438 0.00
			CHANNELS 1 Zrotation
			JOINT RightAnkle
			{
				OFFSET 0.00 -0.2449 0.00
				CHANNELS 3 Zrotation Xrotation Yrotation
				End Site
				{
					OFFSET 0.1237 -0.0542 0.0051
				}
			}
		}
	}
	JOINT LeftHip
	{
		OFFSET 0.0316 -0.0424 -0.0458
		CHANNELS 3 Zrotation Xrotation Yrotation
		JOINT LeftKnee
		{
			OFFSET 0.00 -0.2438 0.00
			CHANNELS 1 Zrotation
			JOINT LeftAnkle
			{
				OFFSET 0.00 -0.2449 0.00
				CHANNELS 3 Zrotation Xrotation Yrotation
				End Site
				{
					OFFSET 0.1237 -0.0542 -0.0051
				}
			}
		}
	}
}
MOTION
Frames: 22
Frame Time: 0.02
0.96305 -0.0083 0.05079 166.53285 -26.34285 0.24154 38.37277 0.22614 7.18587 -21.25277 -0.61236 -0.83078 7.46569 -71.67563 17.5035 36.46685 87.73858 3.1043 0.18747 -39.69324 17.12585 10.21152 36.68596 -107.17226 6.29972 -5.39199 45.71316 -6.78988 0.88646 -64.00214 -13.75823 -3.12128 -2.61706 43.53365 3.15479 5.49285 -7.79541 -14.5289 4.16673 3.24917
0.95521 -0.00755 0.05291 166.71426 -25.58154 -0.10773 37.7536 0.24283 6.03947 -21.6046 -0.34142 -0.83078 8.00609 -71.68127 20.14023 38.41009 86.91364 2.57157 -0.03599 -37.93376 18.80564 8.50139 37.74288 -102.90522 4.75476 -4.41692 46.32878 -6.69924 0.34377 -65.20985 -13.79212 -3.3664 -2.75963 43.07426 3.27963 5.77521 -10.27956 -13.77945 4.37373 3.34131
0.9477 -0.00665 0.05462 167.02706 -24.83036 -0.55978 37.17372 0.27261 4.68415 -22.02018 0.15615 -0.83078 9.15103 -71.69669 23.55098 40.77744 86.21934 2.26764 -0.32972 -36.05592 20.72555 6.54056 38.86461 -97.17245 3.08179 -2.94625 46.94113 -6.49959 -0.60401 -65.95471 -13.57099 -3.67599 -2.92613 42.80103 3.58558 7.68294 -13.0602 -13.21195 4.05422 3.11862
0.94006 -0.00582 0.05649 167.28098 -24.09211 -0.96783 36.59008 0.30033 3.41181 -22.39246 0.55211 -0.83078 10.12852 -71.69162 26.67586 42.9595 85.5427 1.89453 -0.56968 -34.2644 22.53809 4.72692 39.98907 -92.30859 1.53398 -1.75029 47.55383 -6.34166 -1.36395 -66.81533 -13.47004 -3.95094 -3.07895 42.4439 3.80587 8.7547 -15.6612 -12.56778 3.9932 3.05076
0.93236 -0.00498 0.05847 167.53744 -23.27382 -1.36829 35.93923 0.31352 2.18095 -22.82899 0.94635 -0.83078 10.66819 -71.76791 29.5608 45.13243 84.53813 1.36214 -0.89902 -32.33381 24.34841 2.76679 41.00173 -86.63406 -0.29065 -0.35657 48.18267 -6.2108 -2.1398 -68.09752 -13.35297 -4.25058 -3.24494 42.0857 4.03962 10.18168 -18.46416 -11.89397 3.87199 2.94469
0.92487 -0.00413 0.06012 167.81677 -22.62786 -1.80573 35.44128 0.35903 0.82051 -23.14454 1.39386 -0.83078 12.24049 -71.66605 33.08314 47.40976 84.23767 1.22271 -1.0637 -30.66234 26.21826 1.05175 42.24816 -82.28276 -1.56858 0.74803 48.77056 -5.9993 -2.97351 -68.37415 -13.21016 -4.51294 -3.38858 41.77445 4.28746 11.27872 -20.91273 -11.32674 3.7429 2.83893
0.91787 -0.00328 0.06094 168.1368 -22.44462 -2.34178 35.34851 0.49468 -0.88247 -23.12038 1.96476 -0.83078 16.72828 -71.144 38.5689 49.95444 85.98735 2.0829 -0.70934 -29.77278 28.1934 0.10973 44.18788 -81.93901 -1.34244 0.92294 49.27402 -5.60089 -3.93681 -66.0995 -13.0351 -4.6607 -3.46588 41.53247 4.54386 11.03521 -22.30184 -11.00939 3.72268 2.81257
0.91109 -0.00244 0.06143 168.47322 -22.43742 -2.90705 35.4108 0.66144 -2.70054 -22.96985 2.57542 -0.83078 22.19578 -70.42955 44.59825 52.57145 88.41842 3.33475 -0.19485 -29.14101 30.21806 -0.58237 46.34533 -82.97041 -0.55789 0.79315 49.73048 -5.1251 -4.93586 -62.80781 -12.84772 -4.76758 -3.51948 41.33379 4.80565 10.41683 -23.32361 -10.79367 3.70937 2.79547
0.90422 -0.00162 0.06207 168.7944 -22.357 -3.44465 35.4077 0.81102 -4.44237 -22.87042 3.14679 -0.83078 27.07599 -69.751 50.11773 55.09971 90.4483 4.43167 0.21485 -28.36852 32.22146 -1.41022 48.35986 -83.37082 -0.00389 0.81088 50.18828 -4.6788 -5.86969 -59.90446 -12.67955 -4.89037 -3.58295 41.12426 5.05635 9.9987 -24.51729 -10.53188 3.68883 2.77158
0.8973 -0.00067 0.0627 169.15119 -22.24714 -4.04721 35.38366 0.97384 -6.29516 -22.8006 3.81538 -0.83078 32.5757 -69.28211 56.76373 57.8813 92.86545 5.45071 0.75483 -27.69477 34.23412 -2.15258 50.56608 -83.75259 0.45504 0.80739 50.72843 -4.2495 -7.00976 -57.29042 -12.44101 -5.02721 -3.65103 40.88321 5.35067 9.51088 -25.70109 -10.27559 3.66778 2.74794
0.89055 0 0.06328 169.43844 -22.24164 -4.51935 35.44048 1.11643 -7.93828 -22.63747 4.28834 -0.83078 37.01143 -68.34122 61.19513 60.14387 94.64045 6.70736 1.06546 -26.8738 36.22849 -3.01134 52.41951 -84.51095 1.2371 0.76947 51.08866 -3.77165 -7.74172 -53.84649 -12.35455 -5.12363 -3.70363 40.7167 5.55198 9.05727 -26.81367 -10.02998 3.65595 2.7299
0.8842 -8e-05 0.06383 169.50893 -22.46935 -4.62973 35.67442 1.19418 -8.99981 -22.25413 4.2072 -0.83078 38.24941 -66.05385 59.26009 60.97652 94.43734 8.64939 0.67744 -25.62374 38.22263 -4.24071 53.28259 -86.04472 2.85304 0.70752 50.94023 -3.14731 -7.18207 -48.29557 -12.64699 -5.11715 -3.7149 40.73455 5.50439 8.79357 -27.82247 -9.78534 3.6714 2.72722
0.878 -0.00045 0.06434 169.51287 -22.79781 -4.60632 35.9853 1.25065 -9.84051 -21.78001 3.92774 -0.83078 38.38118 -63.31549 55.09394 61.27745 93.57039 10.79241 0.05833 -24.21165 40.18289 -5.59538 53.77689 -87.90363 4.76046 0.61957 50.61717 -2.48345 -6.23892 -41.96282 -13.10142 -5.06732 -3.70953 40.82637 5.36089 8.5694 -28.76982 -9.54779 3.69763 2.7309
0.87172 -0.00071 0.06487 169.55923 -23.08838 -4.63997 36.26671 1.3177 -10.76455 -21.34243 3.74026 -0.83078 39.03248 -60.84188 52.02507 61.80687 93.03253 12.76043 -0.4375 -22.84525 42.11762 -6.901 54.41393 -89.57399 6.48428 0.54338 50.38873 -1.85854 -5.56983 -36.0274 -13.51312 -5.04288 -3.71783 40.89133 5.25368 8.31553 -29.74226 -9.3084 3.71947 2.73192
0.86549 -0.00088 0.06539 169.55162 -23.35332 -4.69038 36.53212 1.38212 -11.76468 -20.91908 3.54524 -0.83078 39.65702 -58.10655 48.63109 62.39788 92.40523 15.09602 -1.00495 -21.5976 44.23063 -8.17048 55.15912 -91.46442 8.44517 0.45724 50.09231 -1.1413 -4.47543 -29.86247 -13.79786 -5.00938 -3.71013 40.93205 5.17548 8.09555 -30.71555 -9.06657 3.73986 2.73251
0.85919 -0.0013 0.06591 169.64441 -23.6913 -4.67387 36.84489 1.44642 -12.55226 -20.44783 3.31985 -0.83078 40.04971 -55.81498 45.36817 62.72924 91.79467 16.70793 -1.4801 -20.07101 45.95906 -9.54101 55.59417 -92.95495 9.97202 0.3894 49.89906 -0.60919 -4.18229 -24.02366 -14.38061 -4.96448 -3.71882 41.0369 5.01662 7.82358 -31.67537 -8.83049 3.76483 2.73492
0.85264 -0.00234 0.06644 169.99634 -24.2224 -4.50364 37.28768 1.5166 -12.80626 -19.85287 3.04535 -0.83078 40.16891 -54.83267 43.08684 62.50535 91.41498 16.2761 -1.64506 -17.72716 46.67185 -11.22256 55.21419 -93.26551 10.24597 0.38064 50.01006 -0.58818 -6.12927 -19.10677 -15.78898 -5.08041 -3.89443 41.3287 4.6357 7.35815 -32.62981 -8.60505 3.80889 2.74543
0.846 -0.00362 0.06696 170.45805 -24.81953 -4.27079 37.77128 1.58704 -12.85323 -19.21618 2.74963 -0.83078 40.06964 -54.31832 40.99831 62.03081 91.06762 15.10688 -1.7097 -15.12474 46.99158 -12.99105 54.54301 -93.15495 10.06753 0.39223 50.23364 -0.75681 -8.9035 -14.5815 -17.48243 -5.15699 -4.068 41.67686 4.18118 6.84772 -33.57134 -8.38541 3.85555 2.7567
0.83939 -0.00477 0.06746 170.89178 -25.37512 -4.06765 38.2236 1.65654 -12.99519 -18.60793 2.4722 -0.83078 40.0028 -53.60821 38.76963 61.65159 90.68722 14.27006 -1.82034 -12.69408 47.46585 -14.67983 54.03587 -93.22785 10.08175 0.39465 50.42364 -0.84575 -11.34796 -9.99413 -19.01947 -5.12709 -4.16198 41.98085 3.77514 6.38663 -34.50979 -8.16469 3.89501 2.76451
0.83286 -0.00601 0.06806 171.23018 -25.98343 -3.8548 38.7326 1.7288 -13.12687 -17.95568 2.15069 -0.83078 40.18173 -52.81135 36.68314 61.33798 90.36088 13.44967 -1.93739 -10.02201 48.03998 -16.54238 53.38147 -93.34629 10.15932 0.39588 50.54103 -0.90693 -13.60262 -4.89153 -20.68132 -5.60281 -4.58401 42.36646 3.30199 5.80687 -35.48428 -7.93711 3.96007 2.78555
0.82613 -0.00712 0.06844 171.79473 -26.49576 -3.64876 39.13202 1.79564 -13.23221 -17.38729 1.91942 -0.83078 39.80931 -52.31157 34.3779 60.82806 89.93901 12.42017 -2.01403 -7.80204 48.31407 -18.06223 52.97031 -93.26559 9.9959 0.40452 50.82896 -1.07015 -16.4308 -0.963 -22.14155 -5.03907 -4.33669 42.59363 2.9528 5.46047 -36.38069 -7.72583 3.97253 2.77929
0.81893 -0.00783 0.06828 172.95108 -26.73094 -3.48028 39.22044 1.84784 -13.32791 -17.05336 1.93623 -0.83078 37.98665 -52.52553 31.41087 59.89985 89.24193 10.96801 -2.0046 -6.82238 47.84736 -18.6107 53.29435 -92.73548 9.25687 0.43119 51.64561 -1.48037 -20.84321 -0.20849 -23.03743 -1.42183 -2.11959 42.37712 2.9607 5.79123 -37.07211 -7.55174 3.83704 2.69602
